<svg xmlns="http://www.w3.org/2000/svg" xmlns:xlink="http://www.w3.org/1999/xlink" width="1026" zoomAndPan="magnify" viewBox="0 0 769.5 512.249968" height="683" preserveAspectRatio="xMidYMid meet" version="1.2"><defs><clipPath id="1f9ab362aa"><path d="M 0.3125 0 L 768.6875 0 L 768.6875 511.5 L 0.3125 511.5 Z M 0.3125 0 "/></clipPath><clipPath id="f3ffb38dcb"><path d="M 53 51 L 713 51 L 713 511.5 L 53 511.5 Z M 53 51 "/></clipPath><clipPath id="a2a2e18c2a"><path d="M 0.3125 22.554688 L 706.113281 -29.464844 L 747.34375 529.945312 L 41.542969 581.964844 Z M 0.3125 22.554688 "/></clipPath><clipPath id="c02e951df8"><path d="M 0.3125 22.554688 L 706.113281 -29.464844 L 747.34375 529.945312 L 41.542969 581.964844 Z M 0.3125 22.554688 "/></clipPath><clipPath id="264b618496"><path d="M 145.167969 69 L 612 69 L 612 497 L 145.167969 497 Z M 145.167969 69 "/></clipPath><clipPath id="f5343156b7"><path d="M 167.457031 212.308594 L 623.71875 212.308594 L 623.71875 393.949219 L 167.457031 393.949219 Z M 167.457031 212.308594 "/></clipPath><clipPath id="589f06f204"><path d="M 145.167969 68 L 613 68 L 613 497 L 145.167969 497 Z M 145.167969 68 "/></clipPath></defs><g id="5e10bf2115"><g clip-rule="nonzero" clip-path="url(#1f9ab362aa)"><path style=" stroke:none;fill-rule:nonzero;fill:#ffffff;fill-opacity:1;" d="M 0.3125 0 L 768.6875 0 L 768.6875 511.5 L 0.3125 511.5 Z M 0.3125 0 "/><path style=" stroke:none;fill-rule:nonzero;fill:#000000;fill-opacity:1;" d="M 0.3125 0 L 768.6875 0 L 768.6875 511.5 L 0.3125 511.5 Z M 0.3125 0 "/></g><g clip-rule="nonzero" clip-path="url(#f3ffb38dcb)"><g clip-rule="nonzero" clip-path="url(#a2a2e18c2a)"><g clip-rule="nonzero" clip-path="url(#c02e951df8)"><path style=" stroke:none;fill-rule:nonzero;fill:#bababa;fill-opacity:1;" d="M 99.699219 172.292969 C 41.21875 258.429688 28.195312 399.984375 122.714844 484.59375 C 217.234375 569.203125 360.328125 522.683594 464.402344 531.351562 C 568.476562 540.019531 695.335938 530.671875 710.738281 385.648438 C 726.269531 240.617188 661.777344 209.398438 478.597656 121.4375 C 295.414062 33.480469 211.898438 6.957031 99.699219 172.292969 Z M 99.699219 172.292969 "/></g></g></g><g clip-rule="nonzero" clip-path="url(#264b618496)"><path style=" stroke:none;fill-rule:nonzero;fill:#ffffff;fill-opacity:1;" d="M 603.582031 391.46875 C 603.316406 397.140625 603.414062 400.0625 603.933594 400.152344 C 604.296875 400.238281 604.742188 399.175781 605.351562 396.960938 C 607.921875 402.808594 609.695312 405.644531 610.765625 405.378906 C 611.996094 405.023438 612.175781 400.328125 611.210938 391.113281 C 608.632812 391.203125 606.148438 391.292969 603.582031 391.46875 Z M 146.917969 412.734375 C 146.476562 414.238281 146.03125 416.453125 145.851562 419.289062 C 145.675781 423.277344 146.292969 427.175781 146.917969 427.175781 C 147.359375 427.175781 147.449219 424.871094 149.21875 422.039062 C 149.929688 420.972656 150.636719 420.175781 151.082031 419.644531 C 151.789062 420.972656 152.320312 421.59375 152.675781 421.503906 C 153.296875 421.328125 153.296875 418.582031 152.675781 413.175781 Z M 230.46875 359.570312 C 231.621094 358.773438 233.128906 357.710938 234.640625 356.46875 C 236.148438 355.140625 236.492188 354.695312 236.414062 354.253906 C 236.316406 352.660156 232.242188 351.773438 231.890625 351.683594 C 236.589844 347.964844 237.554688 346.632812 237.378906 346.28125 C 237.03125 345.660156 232.242188 346.988281 229.675781 350.621094 C 227.8125 353.191406 227.636719 356.027344 227.636719 357.445312 C 228.519531 358.152344 229.496094 358.863281 230.46875 359.570312 Z M 182.003906 350.886719 C 179.789062 352.128906 177.75 352.570312 176.421875 352.746094 C 175.359375 353.191406 174.648438 354.078125 174.472656 355.140625 C 174.296875 356.46875 175.089844 357.796875 176.421875 358.328125 L 176.421875 367.011719 C 176.511719 367.191406 177.574219 368.609375 179.523438 368.695312 C 181.5625 368.785156 182.804688 367.101562 182.890625 367.011719 L 182.890625 361.429688 C 184.753906 360.898438 185.722656 359.925781 186.257812 359.304688 C 188.03125 357.179688 188.03125 354.34375 187.9375 349.648438 C 187.9375 347.875 187.761719 346.457031 187.675781 345.480469 C 186.875 346.632812 185.195312 349.113281 182.003906 350.886719 Z M 449.769531 118.03125 C 449.070312 117.410156 448.707031 116.703125 448.527344 116.261719 C 448.527344 116.078125 448.359375 114.929688 447.296875 114.132812 C 446.046875 113.335938 444.71875 113.777344 444.636719 113.777344 C 443.929688 114.308594 442.238281 115.285156 439.84375 115.550781 C 437.550781 115.816406 435.777344 115.195312 434.972656 114.839844 C 435.148438 116.078125 435.511719 118.292969 437.105469 120.511719 C 437.808594 121.578125 439.5 123.878906 442.679688 124.585938 C 445.257812 125.207031 447.375 124.410156 448.261719 124.054688 C 448.625 125.648438 448.972656 127.246094 449.324219 128.75 C 449.953125 128.75 451.726562 128.574219 453.054688 127.246094 C 454.828125 125.382812 455.003906 122.105469 453.234375 119.269531 C 452.613281 119.363281 451.097656 119.179688 449.769531 118.03125 Z M 589.953125 444.808594 L 587.734375 393.242188 L 555.917969 392.621094 L 553.96875 444.71875 L 559.117188 479.71875 L 568.863281 479.71875 L 567.613281 441.53125 L 572.308594 411.40625 L 578.335938 446.933594 L 586.488281 475.113281 L 596.675781 475.113281 Z M 525.445312 141.160156 L 538.640625 116.171875 L 533.589844 113.605469 L 516.585938 137.4375 L 491.855469 133.984375 C 491.332031 133.804688 486.363281 132.121094 482.996094 134.6875 C 479.371094 137.527344 478.652344 144.703125 483.4375 150.460938 C 498.148438 150.375 512.765625 150.375 527.484375 150.285156 L 552.914062 150.285156 L 551.851562 142.84375 Z M 177.050781 432.050781 C 176.960938 432.492188 176.339844 435.503906 175.542969 439.492188 Z M 189.808594 422.304688 C 191.046875 433.554688 192.289062 444.808594 193.53125 456.0625 L 188.480469 496.378906 L 180.0625 496.378906 L 180.0625 458.011719 C 178.558594 451.898438 176.960938 445.785156 175.457031 439.667969 C 173.59375 449.417969 170.667969 465.097656 170.667969 465.097656 L 162.074219 492.300781 L 152.683594 492.300781 L 159.417969 460.402344 L 159.949219 421.417969 C 163.761719 420.441406 169.253906 419.378906 175.984375 419.734375 C 181.65625 420 186.355469 421.152344 189.808594 422.304688 Z M 308.363281 73.730469 C 305.785156 72.308594 303.753906 70.714844 302.328125 69.386719 C 302.0625 69.828125 298.171875 75.855469 300.910156 80.996094 C 301.355469 81.789062 302.0625 82.851562 303.3125 83.828125 C 302.949219 86.578125 302.601562 89.234375 302.328125 91.980469 C 302.425781 92.15625 303.65625 94.550781 306.316406 94.8125 C 308.363281 95.082031 310.402344 93.929688 311.464844 92.070312 C 311.367188 89.765625 311.1875 87.375 311.101562 85.066406 C 311.808594 84.449219 313.234375 83.035156 313.945312 80.726562 C 314.566406 78.78125 314.386719 77.09375 314.203125 76.296875 C 312.519531 75.765625 310.480469 74.96875 308.363281 73.730469 Z M 447.109375 127.863281 C 448.800781 132.210938 450.476562 136.550781 452.167969 140.890625 C 450.210938 141.511719 448.183594 142.132812 446.222656 142.660156 C 438.25 143.019531 431.691406 143.460938 427.171875 143.8125 C 419.464844 144.433594 412.472656 145.144531 412.375 144.523438 C 412.375 144.257812 413.261719 143.902344 414.070312 143.726562 C 409.984375 143.546875 407.945312 143.285156 407.945312 142.929688 C 407.867188 142.042969 418.136719 140.445312 438.691406 138.320312 C 439.667969 137.789062 440.828125 137.082031 441.882812 136.105469 C 445.082031 133.09375 446.488281 129.8125 447.109375 127.863281 "/></g><path style=" stroke:none;fill-rule:nonzero;fill:#0f0e0c;fill-opacity:1;" d="M 493.984375 119.007812 C 489.632812 114.667969 483.617188 119.890625 476.34375 115.90625 C 470.0625 112.449219 470.328125 106.160156 464.566406 105.1875 C 461.28125 104.652344 460.925781 106.601562 456.148438 106.957031 C 448.433594 107.578125 445.421875 102.703125 440.378906 103.675781 C 437.800781 104.210938 434.253906 106.335938 430.898438 114.308594 L 435.671875 117.851562 C 435.230469 116.703125 435.0625 115.636719 434.964844 114.933594 C 435.769531 115.285156 437.542969 115.90625 439.839844 115.636719 C 442.230469 115.375 443.921875 114.398438 444.632812 113.867188 C 444.710938 113.78125 446.039062 113.335938 447.289062 114.222656 C 448.351562 114.933594 448.519531 116.171875 448.519531 116.347656 C 448.699219 116.789062 449.0625 117.5 449.761719 118.121094 C 451.089844 119.363281 452.605469 119.449219 453.128906 119.449219 C 454.28125 121.222656 454.636719 123.261719 454.28125 124.941406 L 455.078125 125.207031 C 456.328125 123.527344 458 123.261719 458 123.261719 C 459.695312 123.167969 461.910156 123.351562 463.238281 124.855469 C 464.027344 125.652344 464.300781 126.628906 464.203125 128.667969 L 482.101562 135.488281 C 487.949219 136.816406 493.542969 134.246094 495.578125 129.816406 C 497.253906 126.359375 496.644531 121.664062 493.984375 119.007812 Z M 438.605469 138.148438 Z M 409.269531 142.664062 C 410.074219 142.753906 411.484375 142.929688 414.0625 143.019531 C 414.320312 143.019531 414.585938 143.285156 414.585938 143.550781 C 414.585938 143.816406 414.503906 143.992188 414.320312 144.171875 C 416.277344 144.082031 419.554688 143.816406 422.824219 143.550781 C 424.253906 143.464844 425.660156 143.285156 427.085938 143.195312 C 433.289062 142.753906 439.660156 142.308594 446.136719 142.042969 L 451.453125 140.449219 L 447.191406 129.460938 C 446.039062 132.121094 444.367188 134.511719 442.230469 136.375 C 441.265625 137.261719 440.105469 138.054688 438.871094 138.675781 C 438.773438 138.675781 438.6875 138.765625 438.6875 138.765625 C 418.574219 140.890625 411.484375 142.042969 409.269531 142.664062 Z M 413.796875 145.320312 C 412.105469 145.320312 411.75 145.058594 411.660156 144.617188 C 411.660156 144.433594 411.660156 144.257812 411.75 144.171875 C 407.59375 143.90625 407.230469 143.464844 407.230469 142.929688 C 407.152344 142.042969 407.152344 140.980469 438.429688 137.703125 C 439.492188 137.085938 440.546875 136.375 441.433594 135.574219 C 443.746094 133.539062 445.515625 130.792969 446.582031 127.691406 C 446.660156 127.421875 446.847656 127.335938 447.101562 127.335938 C 447.371094 127.335938 447.546875 127.515625 447.636719 127.691406 L 452.6875 140.714844 C 452.78125 140.890625 452.78125 141.070312 452.6875 141.15625 C 452.605469 141.332031 452.507812 141.425781 452.339844 141.425781 L 446.402344 143.195312 L 446.21875 143.195312 C 439.757812 143.464844 433.371094 143.816406 427.167969 144.347656 C 425.660156 144.433594 424.253906 144.617188 422.921875 144.703125 C 418.128906 145.058594 415.390625 145.320312 413.796875 145.320312 "/><path style=" stroke:none;fill-rule:nonzero;fill:#ffffff;fill-opacity:1;" d="M 337.054688 381.808594 L 569.378906 381.808594 C 580.71875 381.808594 590.121094 372.507812 590.121094 361.078125 L 590.121094 165.878906 C 590.121094 154.539062 580.816406 145.144531 569.378906 145.144531 L 220.273438 145.144531 C 208.9375 145.144531 199.542969 154.449219 199.542969 165.878906 L 199.542969 361.164062 C 199.542969 372.507812 208.847656 381.898438 220.277344 381.898438 L 315.449219 381.898438 M 337.058594 381.808594 L 324.75 381.808594 "/><path style=" stroke:none;fill-rule:nonzero;fill:#f10019;fill-opacity:1;" d="M 302.234375 91.980469 C 298.957031 92.339844 292.488281 93.578125 286.109375 98.183594 C 276.628906 105.003906 273.703125 114.574219 272.914062 117.5 L 272.914062 134.335938 L 286.992188 141.425781 L 327.753906 141.425781 C 332.546875 138.5 337.234375 135.574219 342.027344 132.652344 C 341.582031 127.867188 341.042969 123.082031 340.601562 118.210938 C 340.421875 116.347656 339.09375 104.476562 328.636719 97.121094 C 321.550781 92.15625 314.117188 91.980469 311.457031 92.070312 C 310.394531 94.019531 308.355469 95.082031 306.308594 94.816406 C 303.5625 94.554688 302.324219 92.15625 302.234375 91.980469 Z M 353.183594 417.515625 L 420.707031 417.515625 L 420.707031 376.050781 L 353.183594 376.050781 Z M 482.546875 133.804688 C 476.785156 131.058594 472.542969 128.132812 469.699219 125.828125 C 464.746094 121.933594 461.023438 117.769531 456.230469 118.386719 C 455 118.5625 453.933594 119.007812 453.304688 119.363281 C 454.820312 121.136719 455.167969 123.613281 454.191406 125.652344 C 453.304688 127.425781 451.453125 128.667969 449.40625 128.753906 C 449.0625 127.15625 448.699219 125.566406 448.351562 124.054688 C 447.734375 124.238281 447.105469 124.414062 446.582031 124.589844 C 446.402344 125.210938 446.21875 126.09375 446.039062 127.339844 C 445.515625 131.410156 444.886719 135.757812 447.191406 138.414062 C 447.734375 139.035156 449.140625 140.273438 452.066406 140.628906 C 452.605469 140.980469 453.226562 141.425781 453.835938 141.777344 C 453.835938 140.449219 453.75 133.984375 453.835938 129.195312 C 453.933594 123.878906 457.921875 123.261719 457.921875 123.261719 C 459.597656 123.171875 461.8125 123.351562 463.140625 124.855469 C 464.648438 126.363281 464.300781 128.488281 462.972656 136.996094 C 462.167969 141.601562 461.722656 144.257812 461.367188 145.855469 C 462.796875 146.566406 464.300781 147.183594 465.976562 147.804688 C 472.277344 150.285156 478.035156 151.4375 482.464844 152.058594 C 483.253906 150.640625 485.027344 147.273438 484.945312 142.664062 C 485.027344 138.5 483.351562 135.222656 482.546875 133.804688 Z M 153.910156 172.4375 L 153.910156 254.21875 L 215.578125 254.21875 L 215.578125 194.234375 L 194.492188 172.4375 Z M 545.898438 353.28125 L 255.539062 353.28125 C 249.699219 353.28125 244.90625 348.496094 244.90625 342.648438 L 244.90625 181.476562 C 244.90625 175.625 249.699219 170.84375 255.539062 170.84375 L 545.898438 170.84375 C 551.746094 170.84375 556.53125 175.625 556.53125 181.476562 L 556.53125 342.558594 C 556.53125 348.496094 551.746094 353.28125 545.898438 353.28125 "/><g clip-rule="nonzero" clip-path="url(#f5343156b7)"><path style=" stroke:none;fill-rule:nonzero;fill:#ffffff;fill-opacity:1;" d="M 623.792969 346.457031 L 623.792969 222.410156 C 623.792969 217.003906 619.441406 212.664062 614.042969 212.664062 L 432.925781 212.664062 C 427.53125 212.664062 423.179688 217.003906 423.179688 222.410156 L 423.179688 346.457031 C 423.179688 351.863281 427.53125 356.203125 432.925781 356.203125 L 614.042969 356.203125 C 619.441406 356.113281 623.792969 351.773438 623.792969 346.457031 Z M 311.183594 393.59375 L 178.371094 393.59375 C 172.429688 393.59375 167.554688 388.722656 167.554688 382.785156 L 167.554688 303.128906 C 167.554688 297.191406 172.429688 292.320312 178.367188 292.320312 L 311.179688 292.320312 C 317.117188 292.320312 321.988281 297.191406 321.988281 303.128906 L 321.988281 382.785156 C 321.988281 388.722656 317.214844 393.59375 311.179688 393.59375 "/></g><path style=" stroke:none;fill-rule:nonzero;fill:#ffffff;fill-opacity:1;" d="M 308.179688 232.421875 L 265.648438 232.421875 C 262.449219 232.421875 259.792969 229.761719 259.792969 226.574219 L 259.792969 222.851562 C 259.792969 219.664062 262.449219 217.003906 265.648438 217.003906 L 308.179688 217.003906 C 311.359375 217.003906 314.019531 219.664062 314.019531 222.851562 L 314.019531 226.574219 C 314.019531 229.851562 311.359375 232.421875 308.179688 232.421875 Z M 388.367188 328.292969 L 325.980469 328.292969 L 325.980469 318.8125 L 388.367188 318.8125 Z M 416.625 299.851562 L 325.980469 299.851562 C 325.714844 298.519531 324.917969 295.421875 322.257812 292.671875 C 318.449219 288.6875 313.496094 288.421875 312.421875 288.421875 L 270.601562 288.421875 L 270.601562 280.710938 L 279.824219 280.710938 C 284.070312 273.710938 291.425781 263.964844 302.5 261.925781 C 317.660156 259.179688 324.75 273.710938 339.8125 271.40625 C 357.699219 268.574219 360.457031 246.246094 374.980469 246.863281 C 387.296875 247.394531 392.433594 263.789062 404.492188 262.191406 C 410.074219 261.484375 414.238281 257.144531 416.625 253.863281 Z M 542.621094 185.460938 C 542.621094 188.207031 540.40625 190.421875 537.667969 190.421875 C 534.910156 190.421875 532.695312 188.207031 532.695312 185.460938 C 532.695312 182.714844 534.910156 180.5 537.667969 180.5 C 540.40625 180.5 542.621094 182.714844 542.621094 185.460938 Z M 516.925781 180.5 C 514.1875 180.5 511.972656 182.714844 511.972656 185.460938 C 511.972656 188.207031 514.1875 190.421875 516.925781 190.421875 C 519.679688 190.421875 521.894531 188.207031 521.894531 185.460938 C 521.894531 182.714844 519.679688 180.5 516.925781 180.5 Z M 499.027344 185.460938 C 499.027344 188.207031 496.8125 190.421875 494.0625 190.421875 C 491.328125 190.421875 489.109375 188.207031 489.109375 185.460938 C 489.109375 182.714844 491.328125 180.5 494.0625 180.5 C 496.8125 180.5 499.027344 182.714844 499.027344 185.460938 "/><path style=" stroke:none;fill-rule:nonzero;fill:#0f0e0c;fill-opacity:1;" d="M 235.601562 371.621094 L 226.394531 371.621094 L 226.394531 344.332031 L 235.601562 344.332031 Z M 219.925781 373.039062 L 210.710938 373.039062 L 210.710938 328.824219 L 219.925781 328.824219 Z M 203.621094 372.59375 L 194.40625 372.59375 L 194.40625 339.015625 L 203.621094 339.015625 Z M 591.710938 324.039062 C 590.382812 329.265625 585.414062 333.253906 579.386719 333.699219 C 579.386719 332.632812 579.386719 331.570312 579.484375 330.417969 C 579.566406 329.355469 579.75 328.382812 580.007812 327.496094 C 580.195312 327.316406 582.488281 325.367188 582.144531 322.355469 C 581.867188 320.496094 580.8125 319.433594 580.371094 318.988281 C 579.929688 319.078125 577.792969 319.433594 575.84375 318.101562 C 573.363281 316.507812 573.105469 313.761719 573.007812 313.40625 C 572.21875 313.851562 571.066406 314.648438 569.90625 315.800781 L 569.90625 307.824219 C 570.625 307.558594 579.042969 304.988281 585.765625 310.304688 C 586.652344 310.925781 593.566406 316.507812 591.710938 324.039062 Z M 506.464844 316.066406 L 506.464844 287.535156 C 515.070312 292.230469 523.664062 296.835938 532.160156 301.535156 C 523.566406 306.40625 514.972656 311.191406 506.464844 316.066406 Z M 435.5 261.925781 L 435.5 344.507812 L 600.386719 344.507812 L 600.386719 261.925781 L 435.5 261.925781 "/><path style=" stroke:none;fill-rule:nonzero;fill:#f10019;fill-opacity:1;" d="M 313.398438 328.292969 L 283.988281 328.292969 L 283.988281 332.28125 L 313.398438 332.28125 Z M 263.875 320.585938 C 258.117188 320.585938 253.421875 325.28125 253.421875 331.039062 C 253.421875 336.796875 258.117188 341.496094 263.875 341.496094 C 269.636719 341.496094 274.324219 336.796875 274.324219 331.039062 C 274.324219 325.28125 269.636719 320.585938 263.875 320.585938 Z M 219.390625 296.039062 C 217.265625 296.039062 215.582031 297.722656 215.582031 299.851562 C 215.582031 301.976562 217.265625 303.660156 219.390625 303.660156 C 221.519531 303.660156 223.203125 301.976562 223.203125 299.851562 C 223.203125 297.722656 221.429688 296.039062 219.390625 296.039062 Z M 204.328125 296.039062 C 202.203125 296.039062 200.519531 297.722656 200.519531 299.851562 C 200.519531 301.976562 202.203125 303.660156 204.328125 303.660156 C 206.457031 303.660156 208.136719 301.976562 208.136719 299.851562 C 208.136719 297.722656 206.367188 296.039062 204.328125 296.039062 Z M 188.558594 295.953125 C 186.429688 295.953125 184.75 297.636719 184.75 299.761719 C 184.75 301.886719 186.429688 303.570312 188.558594 303.570312 C 190.683594 303.570312 192.367188 301.886719 192.367188 299.761719 C 192.28125 297.636719 190.59375 295.953125 188.558594 295.953125 Z M 583.375 245.625 L 468.011719 245.625 L 468.011719 250.675781 L 583.375 250.675781 Z M 536.238281 233.042969 L 468.011719 233.042969 L 468.011719 239.332031 L 536.238281 239.332031 Z M 444.363281 230.738281 C 439.488281 230.738281 435.582031 234.726562 435.582031 239.511719 C 435.582031 244.382812 439.570312 248.28125 444.363281 248.28125 C 449.136719 248.28125 453.125 244.292969 453.125 239.511719 C 453.125 234.726562 449.234375 230.738281 444.363281 230.738281 Z M 315.441406 370.113281 L 256.6875 370.113281 L 256.6875 375.429688 L 315.441406 375.429688 Z M 315.441406 360.191406 L 256.6875 360.191406 L 256.6875 365.507812 L 315.441406 365.507812 Z M 315.441406 355.496094 L 256.6875 355.496094 L 256.6875 350.179688 L 315.441406 350.179688 L 315.441406 355.496094 "/><path style=" stroke:none;fill-rule:nonzero;fill:#ffffff;fill-opacity:1;" d="M 552.90625 310.21875 C 558.835938 307.558594 561.769531 305.875 561.492188 305.253906 C 561.324219 304.8125 559.898438 304.8125 557.160156 305.253906 C 556.894531 297.371094 556.175781 293.292969 554.945312 293.117188 C 553.519531 292.9375 551.480469 297.722656 548.742188 307.382812 Z M 573.996094 318.191406 C 575.847656 319.34375 577.714844 319.078125 578.160156 318.988281 C 578.503906 319.34375 579.570312 320.316406 579.753906 322 C 580.101562 324.660156 577.980469 326.519531 577.796875 326.699219 C 577.617188 327.496094 577.441406 328.382812 577.351562 329.355469 C 577 332.546875 577.539062 335.292969 578.160156 337.152344 C 577.175781 339.101562 575.136719 339.898438 573.550781 339.367188 C 572.125 338.835938 571.59375 337.417969 571.515625 337.152344 L 571.515625 332.988281 C 567.695312 332.898438 566.019531 331.039062 565.65625 330.597656 C 562.652344 327.140625 565.039062 321.292969 566.808594 318.457031 C 568.414062 315.976562 570.449219 314.558594 571.59375 313.851562 C 571.515625 314.203125 571.78125 316.773438 573.996094 318.191406 "/><path style=" stroke:none;fill-rule:nonzero;fill:#ffffff;fill-opacity:1;" d="M 286.992188 141.425781 C 283.007812 142.488281 275.742188 145.234375 271.851562 151.96875 C 269.980469 155.246094 269.371094 158.613281 269.539062 170.574219 C 269.636719 176.6875 269.980469 184.664062 270.777344 194.144531 C 275.03125 194.585938 279.195312 194.941406 283.449219 195.386719 L 286.285156 162.511719 L 308.4375 147.71875 L 328.117188 159.144531 L 328.636719 195.386719 L 342.027344 196.269531 C 343.082031 186.257812 343.878906 177.398438 344.507812 169.953125 C 345.207031 160.296875 345.394531 156.132812 343.257812 151.523438 C 340.253906 144.96875 334.664062 141.332031 331.121094 139.476562 L 327.753906 141.425781 Z M 463.316406 124.855469 C 464.824219 126.453125 464.46875 128.484375 463.140625 136.992188 C 461.644531 146.296875 461.367188 147.535156 459.953125 148.777344 C 458 150.460938 455.265625 150.375 449.851562 150.195312 C 440.902344 149.839844 439.050781 147.625 431.960938 148.335938 C 429.648438 148.601562 426.722656 149.132812 426.644531 148.777344 C 426.546875 148.511719 428.054688 147.804688 429.382812 147.273438 C 422.738281 146.648438 419.378906 146.121094 419.378906 145.679688 C 419.378906 145.234375 423.269531 144.96875 431.074219 144.792969 L 454.015625 142.042969 C 454.015625 142.042969 453.933594 134.601562 454.015625 129.285156 C 454.113281 123.96875 458.097656 123.351562 458.097656 123.351562 C 459.773438 123.261719 461.988281 123.4375 463.316406 124.855469 "/><path style=" stroke:none;fill-rule:nonzero;fill:#0f0e0c;fill-opacity:1;" d="M 490.261719 181.121094 C 487.863281 181.121094 485.914062 183.070312 485.914062 185.460938 C 485.914062 187.851562 487.863281 189.800781 490.261719 189.800781 C 492.65625 189.800781 494.597656 187.851562 494.597656 185.460938 C 494.695312 183.070312 492.65625 181.121094 490.261719 181.121094 Z M 490.261719 191.042969 C 487.160156 191.042969 484.679688 188.5625 484.679688 185.460938 C 484.679688 182.359375 487.160156 179.878906 490.261719 179.878906 C 493.363281 179.878906 495.835938 182.359375 495.835938 185.460938 C 495.835938 188.5625 493.363281 191.042969 490.261719 191.042969 "/><path style=" stroke:none;fill-rule:nonzero;fill:#0f0e0c;fill-opacity:1;" d="M 513.113281 181.121094 C 510.722656 181.121094 508.773438 183.070312 508.773438 185.460938 C 508.773438 187.851562 510.722656 189.800781 513.113281 189.800781 C 515.515625 189.800781 517.464844 187.851562 517.464844 185.460938 C 517.542969 183.070312 515.515625 181.121094 513.113281 181.121094 Z M 513.113281 191.042969 C 510.011719 191.042969 507.542969 188.5625 507.542969 185.460938 C 507.542969 182.359375 510.011719 179.878906 513.113281 179.878906 C 516.214844 179.878906 518.695312 182.359375 518.695312 185.460938 C 518.695312 188.5625 516.214844 191.042969 513.113281 191.042969 "/><path style=" stroke:none;fill-rule:nonzero;fill:#0f0e0c;fill-opacity:1;" d="M 533.855469 181.121094 C 531.464844 181.121094 529.507812 183.070312 529.507812 185.460938 C 529.507812 187.851562 531.464844 189.800781 533.855469 189.800781 C 536.242188 189.800781 538.191406 187.851562 538.191406 185.460938 C 538.289062 183.070312 536.339844 181.121094 533.855469 181.121094 Z M 533.855469 191.042969 C 530.753906 191.042969 528.265625 188.5625 528.265625 185.460938 C 528.265625 182.359375 530.753906 179.878906 533.855469 179.878906 C 536.957031 179.878906 539.4375 182.359375 539.4375 185.460938 C 539.4375 188.5625 536.957031 191.042969 533.855469 191.042969 "/><path style=" stroke:none;fill-rule:nonzero;fill:#0f0e0c;fill-opacity:1;" d="M 555.46875 382.429688 C 555.46875 382.074219 555.46875 381.632812 555.566406 381.277344 L 420.609375 381.277344 C 420.609375 381.632812 420.609375 382.074219 420.523438 382.429688 L 421.328125 382.429688 C 421.40625 382.785156 421.496094 383.050781 421.59375 383.40625 L 426.28125 383.40625 L 426.28125 423.71875 L 359.914062 423.71875 L 359.914062 418.316406 C 359.570312 418.316406 359.128906 418.226562 358.765625 418.226562 L 358.765625 424.339844 C 358.765625 424.695312 359.03125 424.960938 359.382812 424.960938 L 426.910156 424.960938 C 427.257812 424.960938 427.53125 424.695312 427.53125 424.339844 L 427.53125 382.875 C 427.53125 382.695312 427.433594 382.609375 427.351562 382.519531 L 555.46875 382.519531 Z M 559.011719 479.71875 C 550.328125 482.554688 546.085938 484.59375 546.261719 485.746094 C 546.527344 487.25 554.058594 487.515625 568.855469 486.363281 C 568.757812 484.148438 568.757812 481.933594 568.679688 479.71875 Z M 578.425781 319.078125 C 578.769531 319.433594 579.835938 320.40625 580.011719 322.089844 C 580.375 324.75 578.238281 326.609375 578.0625 326.785156 C 577.886719 327.582031 577.714844 328.46875 577.617188 329.445312 C 577.539062 330.507812 577.539062 331.484375 577.539062 332.457031 C 583.03125 332.101562 587.542969 328.46875 588.792969 323.683594 C 590.46875 316.863281 584.183594 311.8125 583.378906 311.101562 C 577.273438 306.230469 569.644531 308.621094 568.9375 308.886719 L 568.9375 316.152344 C 570.007812 315.089844 571.070312 314.382812 571.683594 314.027344 C 571.683594 314.382812 571.957031 316.863281 574.253906 318.367188 C 576.113281 319.433594 577.984375 319.167969 578.425781 319.078125 Z M 327.308594 366.660156 C 326.964844 366.660156 326.6875 366.925781 326.6875 367.277344 C 326.6875 367.632812 326.964844 367.898438 327.308594 367.898438 L 554.847656 367.898438 C 559.277344 367.898438 563.363281 365.949219 566.199219 362.496094 C 566.367188 362.230469 566.367188 361.875 566.101562 361.695312 C 565.835938 361.519531 565.480469 361.519531 565.3125 361.785156 C 562.734375 364.976562 558.933594 366.746094 554.945312 366.746094 L 327.308594 366.746094 Z M 420.707031 376.050781 L 353.183594 376.050781 L 386.941406 395.011719 Z M 255.273438 352.660156 L 312.867188 352.660156 L 312.867188 348.496094 L 255.273438 348.496094 Z M 254.128906 353.28125 L 254.128906 347.964844 C 254.128906 347.609375 254.386719 347.34375 254.75 347.34375 L 313.496094 347.34375 C 313.839844 347.34375 314.117188 347.609375 314.117188 347.964844 L 314.117188 353.28125 C 314.117188 353.632812 313.839844 353.898438 313.496094 353.898438 L 254.75 353.898438 C 254.386719 353.898438 254.128906 353.632812 254.128906 353.28125 Z M 532.164062 231.359375 L 465.089844 231.359375 L 465.089844 236.496094 L 532.164062 236.496094 Z M 533.316406 230.207031 L 533.316406 237.648438 L 463.9375 237.648438 L 463.9375 230.207031 Z M 586.214844 475.113281 C 579.570312 481.046875 576.652344 484.59375 577.441406 485.746094 C 578.425781 487.25 584.886719 485.210938 596.933594 479.71875 C 596.492188 478.214844 596.050781 476.617188 595.605469 475.113281 Z M 255.273438 372.683594 L 312.867188 372.683594 L 312.867188 368.519531 L 255.273438 368.519531 Z M 254.128906 367.898438 C 254.128906 367.542969 254.386719 367.277344 254.75 367.277344 L 313.496094 367.277344 C 313.839844 367.277344 314.117188 367.542969 314.117188 367.898438 L 314.117188 373.214844 C 314.117188 373.570312 313.839844 373.835938 313.496094 373.835938 L 254.75 373.835938 C 254.386719 373.835938 254.128906 373.570312 254.128906 373.214844 Z M 596.933594 361.078125 L 590.121094 361.078125 C 590.199219 361.429688 590.121094 361.875 589.945312 362.230469 L 597.378906 362.230469 C 597.113281 361.960938 597.03125 361.695312 597.03125 361.34375 C 597.03125 361.253906 596.933594 361.164062 596.933594 361.078125 Z M 255.273438 362.671875 L 312.867188 362.671875 L 312.867188 358.507812 L 255.273438 358.507812 Z M 254.128906 357.976562 C 254.128906 357.621094 254.386719 357.355469 254.75 357.355469 L 313.496094 357.355469 C 313.839844 357.355469 314.117188 357.621094 314.117188 357.976562 L 314.117188 363.292969 C 314.117188 363.644531 313.839844 363.910156 313.496094 363.910156 L 254.75 363.910156 C 254.386719 363.910156 254.128906 363.644531 254.128906 363.292969 Z M 416.625 352.660156 C 416.277344 351.417969 416.089844 350.179688 416.089844 348.847656 L 416.089844 262.902344 C 412.546875 267.15625 408.746094 269.636719 404.574219 270.167969 C 398.015625 271.054688 393.417969 266.800781 388.988281 262.726562 C 384.902344 259.003906 380.738281 255.105469 375.078125 254.925781 C 368.246094 254.660156 364.082031 259.710938 359.382812 265.558594 C 354.695312 271.40625 349.285156 278.054688 340.078125 279.472656 C 332.449219 280.710938 326.6875 277.609375 321.203125 274.597656 C 315.523438 271.496094 310.128906 268.660156 302.675781 269.992188 C 294.523438 271.496094 287.257812 277.433594 280.890625 287.800781 L 312.511719 287.800781 C 320.316406 287.800781 326.6875 294.179688 326.6875 301.976562 L 326.6875 352.746094 L 416.625 352.746094 Z M 325.457031 302.597656 C 325.457031 295.066406 319.335938 288.953125 311.804688 288.953125 L 185.984375 288.953125 C 178.367188 288.953125 172.167969 295.15625 172.167969 302.773438 L 172.167969 310.75 L 325.453125 310.75 Z M 220.097656 259.09375 L 220.097656 199.902344 L 219.832031 199.636719 L 199.542969 199.636719 L 199.542969 178.636719 L 199.273438 178.371094 L 159.578125 178.371094 L 159.578125 259.003906 L 220.097656 259.003906 Z M 617.757812 230.914062 L 617.757812 348.847656 C 617.757812 354.695312 613.949219 359.660156 608.726562 361.519531 C 608.808594 361.078125 608.808594 360.722656 608.632812 360.277344 C 613.238281 358.507812 616.605469 354.078125 616.605469 348.847656 L 616.605469 230.914062 C 616.605469 224.179688 611.113281 218.6875 604.378906 218.6875 L 429.472656 218.6875 C 422.738281 218.6875 417.242188 224.179688 417.242188 230.914062 L 417.242188 348.847656 C 417.242188 355.582031 422.738281 361.078125 429.472656 361.078125 L 555.289062 361.078125 C 555.121094 361.429688 555.121094 361.875 555.203125 362.230469 L 429.472656 362.230469 C 423.808594 362.230469 418.9375 358.683594 416.976562 353.722656 C 416.898438 353.8125 416.800781 353.8125 416.625 353.8125 L 326.601562 353.8125 L 326.601562 375.429688 C 326.601562 377.46875 326.15625 379.417969 325.457031 381.191406 L 353.003906 381.191406 C 352.925781 381.542969 352.925781 381.988281 352.925781 382.34375 L 324.917969 382.34375 C 322.4375 387.039062 317.5625 390.140625 311.902344 390.140625 L 190.589844 390.140625 C 190.242188 390.140625 189.972656 389.875 189.972656 389.519531 C 189.972656 389.164062 190.242188 388.898438 190.59375 388.898438 L 311.804688 388.898438 C 319.335938 388.898438 325.460938 382.785156 325.460938 375.253906 L 325.460938 311.722656 L 172.171875 311.722656 L 172.167969 342.113281 C 173.851562 340.964844 176.066406 339.8125 178.816406 339.28125 C 185.460938 338.214844 190.242188 341.671875 191.128906 342.292969 L 187.9375 348.050781 L 187.851562 348.140625 C 187.761719 346.988281 187.675781 346.015625 187.585938 345.214844 C 186.875 346.457031 185.105469 348.9375 182.003906 350.710938 C 179.789062 351.949219 177.75 352.394531 176.417969 352.570312 C 175.355469 353.011719 174.648438 353.898438 174.472656 354.960938 C 174.296875 356.292969 175.089844 357.621094 176.417969 358.152344 L 176.417969 362.496094 C 175.535156 362.050781 173.761719 360.988281 172.078125 359.214844 L 172.078125 366.746094 C 172.078125 367.101562 171.8125 367.367188 171.460938 367.367188 C 171.101562 367.367188 170.839844 367.101562 170.839844 366.746094 L 170.839844 359.394531 C 170.839844 359.039062 171.101562 358.773438 171.460938 358.773438 C 171.546875 358.773438 171.636719 358.773438 171.726562 358.863281 C 171.195312 358.242188 170.660156 357.53125 170.132812 356.644531 C 167.117188 351.597656 168.269531 346.457031 168.625 345.304688 C 168.980469 344.863281 169.773438 343.886719 171.015625 342.824219 C 170.925781 342.734375 170.839844 342.558594 170.839844 342.46875 L 170.839844 302.421875 C 170.839844 294.269531 177.484375 287.621094 185.636719 287.621094 L 199.015625 287.621094 L 199.015625 260.15625 L 158.964844 260.15625 C 158.613281 260.15625 158.347656 259.890625 158.347656 259.535156 L 158.347656 177.753906 C 158.347656 177.398438 158.613281 177.132812 158.964844 177.132812 L 199.546875 177.132812 C 199.722656 177.132812 199.8125 177.21875 199.992188 177.308594 L 221.078125 199.105469 C 221.164062 199.195312 221.253906 199.371094 221.253906 199.550781 L 221.253906 259.535156 C 221.253906 259.890625 220.988281 260.15625 220.636719 260.15625 L 200.167969 260.15625 L 200.167969 287.621094 L 244.289062 287.621094 L 244.289062 184.484375 C 244.289062 176.6875 250.667969 170.308594 258.464844 170.308594 L 269.542969 170.308594 C 269.542969 170.664062 269.640625 171.105469 269.71875 171.460938 L 258.820312 171.460938 C 251.476562 171.460938 245.449219 177.488281 245.449219 184.839844 L 245.449219 199.105469 L 259.890625 199.105469 C 262.550781 197.867188 266.882812 196.269531 272.917969 194.320312 C 275.742188 194.585938 278.5 194.851562 281.335938 195.117188 C 281.15625 196.800781 281.058594 198.484375 280.890625 200.167969 C 280.972656 199.816406 281.058594 199.460938 281.15625 199.105469 L 330.148438 199.105469 L 330.148438 195.472656 C 333.25 195.652344 336.351562 195.917969 339.449219 196.09375 C 344.765625 197.6875 348.578125 198.929688 350.890625 199.992188 C 350.445312 199.636719 350.003906 199.371094 349.382812 199.105469 L 555.832031 199.105469 L 555.832031 184.839844 C 555.832031 177.488281 549.808594 171.460938 542.445312 171.460938 L 344.589844 171.460938 C 344.6875 171.105469 344.6875 170.664062 344.6875 170.308594 L 543.332031 170.308594 C 550.960938 170.308594 557.164062 176.511719 557.164062 184.132812 L 557.164062 212.664062 C 557.164062 213.015625 556.898438 213.28125 556.535156 213.28125 C 556.179688 213.28125 555.914062 213.015625 555.914062 212.664062 L 555.914062 200.347656 L 351.597656 200.347656 C 352.925781 201.054688 353.628906 201.585938 353.546875 202.03125 C 353.273438 203.535156 345.476562 203.714844 330.148438 202.738281 L 330.148438 200.347656 L 280.890625 200.347656 C 280.890625 200.699219 280.792969 201.054688 280.792969 201.410156 C 264.941406 203.09375 256.871094 203.269531 256.523438 201.765625 C 256.425781 201.410156 256.871094 200.96875 257.675781 200.347656 L 245.351562 200.347656 L 245.351562 287.886719 L 279.289062 287.886719 C 285.933594 276.902344 293.640625 270.523438 302.324219 268.925781 C 310.210938 267.507812 315.96875 270.609375 321.550781 273.625 C 327.132812 276.636719 332.363281 279.472656 339.636719 278.320312 C 348.398438 276.902344 353.449219 270.789062 358.242188 264.761719 C 362.929688 258.914062 367.449219 253.421875 374.894531 253.6875 C 381.015625 253.953125 385.347656 257.941406 389.601562 261.839844 C 394.128906 265.914062 398.292969 269.8125 404.320312 269.015625 C 408.484375 268.484375 412.371094 265.738281 416.015625 261.042969 L 416.015625 230.914062 C 416.015625 223.5625 422.039062 217.535156 429.386719 217.535156 L 568.140625 217.535156 L 568.140625 170.488281 C 568.140625 163.042969 562.117188 157.019531 554.683594 157.019531 L 345.210938 157.019531 C 345.210938 156.664062 345.128906 156.222656 345.03125 155.867188 L 554.851562 155.867188 C 555.738281 155.867188 556.621094 155.957031 557.417969 156.132812 C 556.277344 155.246094 554.683594 152.675781 552.636719 148.511719 C 552.371094 146.648438 552.105469 144.703125 551.847656 142.84375 L 558.667969 142.84375 C 559.722656 151.257812 559.636719 155.777344 558.492188 156.398438 C 564.773438 157.992188 569.382812 163.753906 569.382812 170.488281 L 569.382812 217.535156 L 604.378906 217.535156 C 611.832031 217.535156 617.761719 223.5625 617.761719 230.914062 Z M 195.828125 499.210938 C 193.964844 498.769531 191.484375 497.972656 188.5625 496.289062 L 180.144531 496.289062 L 180.144531 503.820312 C 186.96875 503.820312 193.878906 503.730469 200.699219 503.730469 C 200.699219 503.023438 200.609375 502.046875 200.082031 501.25 C 199.105469 499.742188 197.332031 499.566406 195.828125 499.210938 Z M 465.089844 247.75 L 579.3125 247.75 L 579.3125 243.851562 L 465.089844 243.851562 Z M 463.9375 242.789062 L 580.453125 242.789062 L 580.453125 248.992188 L 463.9375 248.992188 Z M 301.347656 81.792969 C 301.171875 81.527344 300.992188 81.265625 300.90625 80.996094 C 298.167969 75.855469 302.058594 69.832031 302.324219 69.386719 C 303.828125 70.71875 305.777344 72.3125 308.355469 73.730469 C 310.472656 74.878906 312.511719 75.679688 314.117188 76.210938 C 314.285156 77.097656 314.382812 78.78125 313.839844 80.640625 C 313.398438 82.058594 312.6875 83.210938 312.070312 84.007812 C 312.867188 83.566406 318.546875 80.289062 319.433594 73.730469 C 319.875 70.273438 319.335938 63.71875 314.285156 61.503906 C 310.652344 59.90625 305.964844 61.0625 302.675781 64.429688 C 301.976562 64.25 297.988281 63.628906 295.332031 66.019531 C 291.789062 69.210938 292.574219 75.679688 295.855469 79.050781 C 297.804688 80.996094 300.203125 81.617188 301.347656 81.792969 Z M 286.109375 171.460938 L 328.371094 171.460938 L 328.371094 170.308594 L 286.285156 170.308594 C 286.285156 170.664062 286.207031 171.105469 286.109375 171.460938 Z M 569.378906 145.765625 C 580.453125 145.765625 589.5 154.804688 589.5 165.878906 L 589.5 212.929688 L 590.644531 212.929688 L 590.644531 165.878906 C 590.644531 154.183594 581.082031 144.617188 569.378906 144.617188 L 558.933594 144.617188 C 559.011719 144.96875 559.011719 145.410156 559.011719 145.765625 Z M 553.617188 111.832031 C 553.519531 110.679688 547.671875 109.96875 535.976562 109.703125 L 534.203125 113.957031 L 538.632812 116.171875 C 548.742188 114.398438 553.695312 112.894531 553.617188 111.832031 Z M 340.078125 145.5 C 340.15625 145.585938 340.15625 145.679688 340.253906 145.765625 L 404.316406 145.765625 L 406.433594 150.460938 L 431.863281 150.460938 L 431.863281 148.511719 L 428.417969 147.804688 L 408.039062 147.804688 L 398.113281 124.414062 L 394.746094 124.414062 L 403.6875 144.523438 L 339.449219 144.523438 C 339.714844 144.878906 339.890625 145.144531 340.078125 145.5 Z M 327.753906 141.425781 L 331.121094 117.851562 L 283.449219 117.851562 L 286.992188 141.425781 Z M 167.917969 496.289062 C 166.410156 495.757812 164.28125 494.605469 162.15625 492.300781 L 152.675781 492.300781 L 151.878906 500.097656 C 158.878906 500.808594 165.789062 501.605469 172.789062 502.3125 C 172.875 501.074219 172.875 499.476562 171.8125 498.238281 C 170.75 496.996094 169.511719 496.820312 167.917969 496.289062 Z M 200.167969 165.878906 C 200.167969 154.804688 209.203125 145.765625 220.28125 145.765625 L 276.90625 145.765625 C 277.429688 145.320312 277.871094 144.96875 278.5 144.617188 L 220.28125 144.617188 C 208.585938 144.617188 199.015625 154.183594 199.015625 165.878906 L 199.015625 176.777344 C 199.457031 176.953125 199.816406 177.222656 200.167969 177.574219 Z M 230.027344 170.574219 L 230.027344 287.089844 C 230.027344 287.445312 230.292969 287.710938 230.648438 287.710938 C 231.003906 287.710938 231.269531 287.445312 231.269531 287.089844 L 231.269531 170.574219 C 231.269531 163.132812 237.296875 157.105469 244.734375 157.105469 L 270.082031 157.105469 C 270.164062 156.753906 270.261719 156.308594 270.339844 155.957031 L 244.734375 155.957031 C 236.589844 155.957031 230.027344 162.511719 230.027344 170.574219 Z M 322.886719 156.488281 C 322.886719 156.664062 322.804688 156.929688 322.804688 157.105469 L 295.515625 157.105469 C 295.957031 156.753906 296.402344 156.398438 296.746094 155.957031 L 322.175781 155.957031 C 322.363281 156.132812 322.621094 156.308594 322.886719 156.488281 Z M 328.023438 170.308594 L 286.113281 170.308594 L 286.113281 171.460938 L 327.9375 171.460938 C 327.9375 171.105469 327.9375 170.664062 328.023438 170.308594 Z M 212.570312 245.179688 L 212.570312 244.117188 C 212.570312 243.230469 211.863281 242.523438 210.976562 242.523438 L 168.269531 242.523438 C 167.382812 242.523438 166.671875 243.230469 166.671875 244.117188 L 166.671875 245.179688 C 166.671875 246.066406 167.382812 246.777344 168.269531 246.777344 L 210.976562 246.777344 C 211.863281 246.777344 212.570312 246.066406 212.570312 245.179688 Z M 212.570312 233.574219 L 212.570312 232.511719 C 212.570312 231.625 211.863281 230.914062 210.976562 230.914062 L 168.269531 230.914062 C 167.382812 230.914062 166.671875 231.625 166.671875 232.511719 L 166.671875 233.574219 C 166.671875 234.460938 167.382812 235.167969 168.269531 235.167969 L 210.976562 235.167969 C 211.863281 235.257812 212.570312 234.460938 212.570312 233.574219 Z M 212.570312 222.054688 L 212.570312 220.992188 C 212.570312 220.105469 211.863281 219.398438 210.976562 219.398438 L 168.269531 219.398438 C 167.382812 219.398438 166.671875 220.105469 166.671875 220.992188 L 166.671875 222.054688 C 166.671875 222.941406 167.382812 223.648438 168.269531 223.648438 L 210.976562 223.648438 C 211.863281 223.738281 212.570312 222.941406 212.570312 222.054688 Z M 212.570312 211.597656 L 212.570312 210.535156 C 212.570312 209.648438 211.863281 208.941406 210.976562 208.941406 L 168.269531 208.941406 C 167.382812 208.941406 166.671875 209.648438 166.671875 210.535156 L 166.671875 211.597656 C 166.671875 212.484375 167.382812 213.195312 168.269531 213.195312 L 210.976562 213.195312 C 211.863281 213.195312 212.570312 212.484375 212.570312 211.597656 Z M 189.179688 194.585938 L 168.269531 194.585938 C 167.382812 194.585938 166.671875 193.878906 166.671875 192.992188 L 166.671875 191.929688 C 166.671875 191.042969 167.382812 190.335938 168.269531 190.335938 L 189.089844 190.335938 C 189.976562 190.335938 190.6875 191.042969 190.6875 191.929688 L 190.6875 192.992188 C 190.777344 193.789062 190.066406 194.585938 189.179688 194.585938 "/><g clip-rule="nonzero" clip-path="url(#589f06f204)"><path style=" stroke:none;fill-rule:nonzero;fill:#0f0e0c;fill-opacity:1;" d="M 342.914062 151.613281 C 340.777344 146.832031 336.878906 142.929688 331.296875 140.003906 L 328.292969 141.867188 C 328.195312 141.957031 328.117188 141.957031 328.019531 141.957031 L 287.355469 141.957031 C 282.5625 143.285156 276.183594 146.207031 272.640625 152.234375 C 270.867188 155.335938 270.257812 158.613281 270.425781 170.574219 C 270.523438 178.195312 270.964844 185.902344 271.585938 193.613281 L 283.183594 194.765625 L 285.929688 162.511719 C 285.929688 162.335938 286.027344 162.15625 286.207031 162.070312 L 308.355469 147.273438 C 308.523438 147.183594 308.800781 147.183594 308.96875 147.273438 L 328.636719 158.703125 C 328.816406 158.789062 328.902344 158.96875 328.902344 159.234375 L 329.445312 194.851562 L 341.664062 195.652344 C 342.636719 187.054688 343.433594 178.371094 344.0625 169.867188 C 344.851562 159.941406 344.949219 156.132812 342.914062 151.613281 Z M 343.96875 151.171875 C 346.09375 155.867188 346.015625 159.855469 345.207031 169.867188 C 344.507812 178.550781 343.699219 187.5 342.734375 196.269531 C 342.734375 196.535156 342.46875 196.800781 342.105469 196.800781 L 328.734375 195.917969 C 328.460938 195.917969 328.195312 195.652344 328.195312 195.386719 L 327.671875 159.5 L 308.621094 148.421875 L 286.992188 162.867188 L 284.257812 195.472656 C 284.257812 195.652344 284.160156 195.738281 284.070312 195.828125 C 283.988281 195.917969 283.8125 196.003906 283.625 195.917969 L 270.964844 194.675781 C 270.699219 194.675781 270.425781 194.410156 270.425781 194.144531 C 269.714844 186.257812 269.371094 178.371094 269.191406 170.574219 C 269.007812 158.347656 269.636719 154.980469 271.585938 151.613281 C 275.296875 145.234375 282.039062 142.21875 286.992188 140.804688 L 327.753906 140.804688 L 330.949219 138.855469 C 331.121094 138.765625 331.296875 138.765625 331.5625 138.855469 C 337.5 141.867188 341.664062 146.03125 343.96875 151.171875 Z M 237.816406 345.925781 C 237.640625 345.660156 237.375 345.480469 236.933594 345.480469 L 236.851562 345.480469 C 235.257812 345.480469 231.441406 347.078125 229.050781 350.265625 C 227.277344 352.746094 226.921875 355.582031 226.921875 357.445312 C 226.921875 357.796875 227.1875 358.0625 227.546875 357.976562 C 227.898438 357.976562 228.164062 357.710938 228.074219 357.355469 C 228.074219 355.671875 228.339844 353.101562 229.9375 350.886719 C 231.886719 348.140625 235.160156 346.8125 236.410156 346.632812 C 235.964844 347.164062 234.714844 348.40625 231.351562 351.0625 C 231.175781 351.242188 231.089844 351.417969 231.175781 351.683594 C 231.265625 351.863281 231.441406 352.039062 231.617188 352.128906 C 233.566406 352.570312 235.601562 353.457031 235.699219 354.164062 C 235.699219 354.429688 235.257812 354.964844 234.097656 355.9375 C 232.773438 357.089844 231.441406 358.0625 230.023438 359.039062 C 229.761719 359.214844 229.671875 359.570312 229.847656 359.835938 C 229.9375 360.011719 230.113281 360.101562 230.289062 360.101562 C 230.378906 360.101562 230.558594 360.101562 230.644531 360.011719 C 232.0625 359.039062 233.480469 357.976562 234.8125 356.824219 C 236.3125 355.496094 236.851562 354.875 236.851562 354.164062 C 236.753906 352.660156 234.636719 351.773438 233.039062 351.328125 C 238.082031 347.34375 238.179688 346.546875 237.816406 345.925781 Z M 552.367188 142.753906 C 552.367188 142.488281 552.101562 142.308594 551.84375 142.21875 L 526.324219 140.628906 L 539.074219 116.4375 C 539.171875 116.261719 539.171875 116.171875 539.074219 115.996094 C 538.996094 115.820312 538.898438 115.730469 538.808594 115.636719 L 533.757812 113.070312 C 533.492188 112.980469 533.238281 112.980469 533.050781 113.246094 L 516.304688 136.816406 L 491.9375 133.449219 C 491.59375 133.359375 491.328125 133.625 491.328125 133.984375 C 491.230469 134.335938 491.496094 134.601562 491.847656 134.601562 L 516.578125 138.054688 C 516.84375 138.054688 517.023438 137.96875 517.101562 137.789062 L 533.757812 114.398438 L 537.84375 116.4375 L 525.078125 140.539062 L 501.597656 138.054688 C 501.242188 138.054688 500.976562 138.234375 500.976562 138.589844 C 500.976562 138.941406 501.152344 139.210938 501.515625 139.210938 L 525.441406 141.691406 L 551.402344 143.371094 L 552.285156 149.664062 L 527.558594 149.664062 L 483.519531 149.839844 C 483.175781 149.839844 482.910156 150.109375 482.910156 150.460938 C 482.910156 150.816406 483.175781 151.082031 483.519531 151.082031 L 527.558594 150.90625 L 552.988281 150.90625 C 553.171875 150.90625 553.351562 150.816406 553.429688 150.726562 C 553.519531 150.640625 553.617188 150.460938 553.617188 150.285156 Z M 571.515625 411.226562 Z M 590.46875 444.808594 L 597.03125 474.933594 C 597.03125 475.113281 597.03125 475.289062 596.933594 475.464844 C 596.847656 475.644531 596.667969 475.644531 596.492188 475.644531 L 586.300781 475.644531 C 586.035156 475.644531 585.769531 475.464844 585.769531 475.199219 L 577.621094 447.023438 L 572.222656 414.949219 L 568.136719 441.53125 L 569.378906 479.628906 C 569.378906 479.808594 569.300781 479.984375 569.203125 480.074219 C 569.121094 480.164062 568.9375 480.25 568.757812 480.25 L 559.011719 480.25 C 558.746094 480.25 558.488281 480.074219 558.390625 479.71875 L 553.253906 444.71875 L 555.121094 392.53125 C 555.121094 392.175781 555.386719 392 555.734375 392 C 556.089844 392 556.273438 392.265625 556.273438 392.621094 L 554.316406 444.71875 L 559.375 479.1875 L 567.96875 479.1875 L 566.71875 441.617188 L 571.417969 411.40625 L 571.417969 402.722656 C 571.417969 402.367188 571.683594 402.101562 572.035156 402.101562 C 572.398438 402.101562 572.667969 402.367188 572.667969 402.722656 L 572.667969 411.40625 L 572.667969 411.316406 C 572.667969 411.136719 572.570312 411.050781 572.480469 410.960938 L 572.667969 411.316406 L 572.667969 411.492188 L 572.667969 411.316406 L 578.683594 446.757812 L 586.65625 474.492188 L 595.703125 474.492188 L 589.316406 444.984375 L 587.101562 393.328125 C 587.101562 392.972656 587.367188 392.707031 587.632812 392.707031 C 587.984375 392.707031 588.25 392.972656 588.25 393.242188 Z M 611.828125 391.023438 C 611.828125 390.671875 611.464844 390.492188 611.210938 390.492188 C 610.847656 390.492188 610.667969 390.847656 610.667969 391.113281 C 611.910156 403.429688 610.847656 404.671875 610.667969 404.757812 C 610.582031 404.757812 609.4375 404.582031 605.894531 396.695312 C 605.796875 396.429688 605.53125 396.339844 605.351562 396.339844 C 605.085938 396.339844 604.910156 396.519531 604.820312 396.785156 C 604.5625 397.757812 604.296875 398.46875 604.121094 398.910156 C 604.023438 397.9375 603.933594 395.898438 604.199219 391.558594 C 604.199219 391.203125 603.933594 390.9375 603.679688 390.9375 C 603.316406 390.847656 603.050781 391.203125 603.050781 391.46875 C 602.605469 400.507812 603.234375 400.59375 603.855469 400.683594 C 604.378906 400.773438 604.820312 400.417969 605.449219 398.558594 C 608.285156 404.757812 609.613281 406 610.582031 406 L 610.847656 406 C 612.09375 405.644531 613.0625 403.605469 611.828125 391.023438 Z M 462.972656 125.296875 C 461.988281 124.234375 460.394531 123.792969 458.179688 123.878906 C 457.824219 123.96875 454.722656 124.679688 454.636719 129.285156 C 454.554688 134.601562 454.636719 141.957031 454.636719 142.042969 C 454.636719 142.308594 454.457031 142.574219 454.113281 142.660156 L 431.15625 145.410156 C 426.023438 145.5 423.179688 145.675781 421.671875 145.855469 C 423.003906 146.121094 425.394531 146.386719 429.472656 146.828125 C 429.746094 146.828125 429.914062 147.09375 430.011719 147.359375 C 430.011719 147.625 429.914062 147.890625 429.648438 147.976562 C 429.382812 148.070312 429.027344 148.246094 428.859375 148.335938 C 429.207031 148.335938 429.472656 148.246094 429.824219 148.246094 C 430.535156 148.160156 431.242188 148.070312 431.960938 147.976562 C 433.015625 147.890625 433.902344 147.800781 434.789062 147.800781 C 437.179688 147.800781 439.050781 148.160156 441.167969 148.601562 C 443.480469 149.046875 446.039062 149.574219 450.027344 149.753906 L 450.203125 149.753906 C 455.34375 149.929688 458 150.019531 459.773438 148.511719 C 461.023438 147.449219 461.199219 146.207031 462.699219 137.082031 C 463.9375 128.664062 464.203125 126.628906 462.972656 125.296875 Z M 452.78125 119.890625 C 451.898438 119.804688 450.566406 119.449219 449.40625 118.386719 C 448.796875 117.851562 448.351562 117.148438 447.988281 116.4375 L 447.988281 116.261719 C 447.988281 116.082031 447.8125 115.195312 447.023438 114.574219 C 446.136719 113.957031 445.25 114.222656 444.976562 114.308594 C 443.921875 115.019531 442.230469 115.902344 440.015625 116.171875 C 438.332031 116.347656 436.914062 116.082031 435.769531 115.726562 C 436.117188 117.324219 436.738281 118.828125 437.71875 120.15625 C 438.429688 121.21875 440.015625 123.347656 442.9375 124.054688 C 445.152344 124.589844 447.191406 123.96875 448.175781 123.527344 C 448.253906 123.527344 448.351562 123.433594 448.433594 123.433594 C 448.519531 123.433594 448.617188 123.433594 448.699219 123.527344 C 448.875 123.613281 448.964844 123.792969 448.964844 123.878906 L 449.949219 128.132812 C 450.738281 128.042969 451.898438 127.78125 452.78125 126.804688 C 454.113281 125.296875 454.191406 122.375 452.78125 119.890625 Z M 463.761719 124.496094 C 465.453125 126.269531 465.089844 128.84375 463.679688 137.167969 C 462.085938 146.648438 461.8125 147.976562 460.316406 149.222656 C 458.808594 150.550781 456.9375 150.902344 454.015625 150.902344 C 452.863281 150.902344 451.535156 150.816406 449.949219 150.816406 L 449.761719 150.816406 C 445.695312 150.636719 443.035156 150.105469 440.722656 149.664062 C 437.886719 149.046875 435.769531 148.601562 431.960938 149.046875 C 431.242188 149.132812 430.535156 149.222656 429.824219 149.308594 C 427.167969 149.664062 426.203125 149.839844 426.023438 149.046875 C 425.925781 148.601562 426.105469 148.246094 427.085938 147.800781 C 418.75 146.914062 418.75 146.472656 418.75 145.855469 C 418.75 145.144531 418.839844 144.613281 430.976562 144.347656 L 453.394531 141.691406 C 453.394531 139.917969 453.304688 133.890625 453.394531 129.371094 C 453.394531 128.664062 453.492188 128.042969 453.667969 127.421875 C 453.570312 127.511719 453.492188 127.691406 453.394531 127.78125 C 452.066406 129.195312 450.203125 129.371094 449.238281 129.460938 C 448.964844 129.460938 448.699219 129.285156 448.699219 129.019531 L 447.8125 124.941406 C 446.484375 125.382812 444.632812 125.742188 442.496094 125.207031 C 439.128906 124.410156 437.355469 121.929688 436.558594 120.867188 C 435.328125 119.179688 434.523438 117.058594 434.253906 114.933594 C 434.253906 114.75 434.34375 114.488281 434.523438 114.398438 C 434.699219 114.308594 434.886719 114.222656 435.0625 114.308594 C 436.027344 114.75 437.71875 115.195312 439.660156 115.019531 C 441.707031 114.839844 443.203125 113.957031 444.1875 113.335938 C 444.1875 113.335938 444.269531 113.246094 444.367188 113.246094 C 444.632812 113.160156 446.136719 112.71875 447.546875 113.601562 C 448.699219 114.398438 448.964844 115.550781 449.0625 115.996094 C 449.320312 116.613281 449.683594 117.058594 450.125 117.5 C 451.179688 118.476562 452.417969 118.652344 453.128906 118.738281 C 453.304688 118.738281 453.492188 118.828125 453.570312 119.003906 C 454.722656 120.867188 455.167969 122.90625 454.820312 124.765625 C 456.148438 122.992188 458.003906 122.726562 458.003906 122.726562 L 458.097656 122.726562 C 460.660156 122.640625 462.53125 123.167969 463.761719 124.496094 Z M 175.890625 358.679688 L 175.890625 367.011719 C 175.890625 367.363281 176.15625 367.628906 176.511719 367.628906 C 176.863281 367.628906 177.128906 367.363281 177.128906 367.011719 L 177.128906 358.328125 C 177.128906 358.0625 176.953125 357.882812 176.777344 357.796875 C 175.714844 357.351562 175.003906 356.289062 175.183594 355.226562 C 175.269531 354.429688 175.890625 353.71875 176.6875 353.367188 C 178.726562 353.097656 180.675781 352.480469 182.445312 351.503906 C 184.660156 350.265625 186.257812 348.667969 187.320312 347.25 C 187.410156 348.136719 187.410156 348.933594 187.410156 349.820312 C 187.496094 354.605469 187.496094 357.175781 185.902344 359.035156 C 185.195312 359.921875 184.132812 360.542969 182.804688 360.984375 C 182.535156 361.074219 182.359375 361.25 182.359375 361.515625 L 182.359375 367.097656 C 182.359375 367.453125 182.621094 367.71875 182.980469 367.71875 C 183.332031 367.71875 183.597656 367.453125 183.597656 367.097656 L 183.597656 361.960938 C 184.929688 361.515625 185.992188 360.71875 186.789062 359.832031 C 188.738281 357.53125 188.738281 354.429688 188.648438 349.820312 C 188.648438 348.402344 188.5625 346.984375 188.382812 345.566406 C 188.382812 345.300781 188.207031 345.125 187.9375 345.035156 C 187.675781 344.949219 187.410156 345.125 187.320312 345.300781 C 186.433594 346.808594 184.753906 349.023438 181.917969 350.53125 C 180.230469 351.417969 178.460938 352.035156 176.511719 352.300781 L 176.335938 352.300781 C 175.089844 352.746094 174.207031 353.898438 174.027344 355.136719 C 173.675781 356.464844 174.472656 357.882812 175.890625 358.683594 Z M 302.863281 84.09375 L 301.878906 91.890625 C 301.878906 92.246094 302.058594 92.511719 302.421875 92.511719 C 302.675781 92.511719 303.039062 92.335938 303.039062 91.976562 L 304.007812 83.828125 C 304.007812 83.652344 303.925781 83.382812 303.828125 83.292969 C 302.863281 82.589844 302.058594 81.613281 301.613281 80.636719 C 299.496094 76.5625 301.789062 71.867188 302.675781 70.183594 C 304.449219 71.6875 306.308594 73.019531 308.355469 74.171875 C 310.128906 75.144531 311.980469 75.941406 313.9375 76.5625 C 314.117188 77.890625 314.019531 79.21875 313.574219 80.375 C 312.957031 82.40625 311.804688 83.738281 310.917969 84.445312 C 310.738281 84.535156 310.738281 84.714844 310.738281 84.890625 L 311.09375 91.890625 C 311.09375 92.246094 311.359375 92.421875 311.722656 92.421875 C 312.070312 92.421875 312.246094 92.152344 312.246094 91.800781 L 311.902344 85.066406 C 312.867188 84.179688 314.019531 82.765625 314.726562 80.636719 C 315.171875 79.128906 315.347656 77.449219 315.082031 75.851562 C 315.082031 75.675781 314.90625 75.5 314.726562 75.410156 C 312.785156 74.789062 310.835938 73.988281 309.066406 72.929688 C 306.929688 71.773438 304.890625 70.269531 303.121094 68.675781 C 303.039062 68.585938 302.863281 68.496094 302.675781 68.496094 C 302.5 68.496094 302.324219 68.585938 302.234375 68.765625 C 301.789062 69.472656 297.890625 75.585938 300.726562 80.992188 C 301.089844 82.320312 301.878906 83.292969 302.863281 84.09375 Z M 192.992188 455.96875 L 189.269531 422.65625 C 184.929688 421.238281 180.40625 420.441406 175.890625 420.261719 C 170.660156 419.996094 165.523438 420.527344 160.472656 421.769531 L 159.941406 460.402344 L 153.382812 491.679688 L 161.714844 491.679688 L 170.21875 464.832031 C 170.484375 463.589844 176.066406 433.375 176.511719 431.871094 C 176.601562 431.605469 176.953125 431.339844 177.21875 431.425781 C 177.488281 431.515625 177.75 431.871094 177.664062 432.136719 C 177.574219 432.578125 176.953125 435.414062 176.246094 439.402344 L 180.675781 457.742188 L 180.675781 495.753906 L 187.9375 495.753906 Z M 190.421875 422.210938 L 194.140625 455.96875 L 194.140625 456.148438 L 189.09375 496.460938 C 189.09375 496.730469 188.824219 496.996094 188.472656 496.996094 L 180.054688 496.996094 C 179.703125 496.996094 179.4375 496.730469 179.4375 496.375 L 179.4375 458.007812 L 175.449219 442.324219 C 174.121094 449.503906 172.257812 458.984375 171.105469 465.183594 L 162.511719 492.5625 C 162.421875 492.828125 162.242188 493.007812 161.980469 493.007812 L 152.675781 493.007812 C 152.496094 493.007812 152.320312 492.917969 152.234375 492.828125 C 152.144531 492.652344 152.054688 492.476562 152.144531 492.386719 L 158.878906 460.488281 L 159.410156 421.589844 C 159.410156 421.324219 159.585938 421.058594 159.851562 421.058594 C 165.167969 419.640625 170.574219 419.109375 176.066406 419.375 C 180.851562 419.640625 185.546875 420.527344 190.070312 421.945312 C 190.246094 421.769531 190.335938 421.945312 190.421875 422.210938 Z M 150.992188 420.617188 C 150.546875 421.148438 150.105469 421.679688 149.753906 422.300781 C 148.691406 423.894531 148.332031 425.3125 147.980469 426.289062 C 147.714844 427.171875 147.539062 427.792969 146.917969 427.792969 C 146.738281 427.792969 146.5625 427.707031 146.386719 427.527344 C 145.589844 426.640625 145.230469 422.566406 145.324219 419.289062 C 145.410156 417.074219 145.765625 414.859375 146.386719 412.640625 C 146.476562 412.375 146.828125 412.109375 147.09375 412.199219 C 147.449219 412.289062 147.625 412.640625 147.539062 412.90625 C 147.003906 415.035156 146.652344 417.160156 146.5625 419.289062 C 146.386719 422.125 146.738281 424.605469 147.003906 425.84375 C 147.269531 424.871094 147.804688 423.363281 148.867188 421.679688 C 149.394531 420.792969 150.105469 419.996094 150.816406 419.199219 C 150.90625 419.109375 151.167969 419.023438 151.347656 419.023438 C 151.523438 419.023438 151.703125 419.199219 151.792969 419.289062 C 152.234375 420.085938 152.496094 420.441406 152.675781 420.707031 C 152.855469 420.085938 152.941406 418.402344 152.320312 413.261719 C 152.320312 412.90625 152.496094 412.640625 152.855469 412.640625 C 153.207031 412.554688 153.472656 412.820312 153.472656 413.175781 C 154.449219 421.058594 153.828125 421.855469 153.03125 422.125 C 152.144531 422.210938 151.609375 421.589844 150.992188 420.617188 "/></g><path style=" stroke:none;fill-rule:nonzero;fill:#f10019;fill-opacity:1;" d="M 571.515625 337.152344 C 568.679688 337.773438 563.539062 338.394531 557.417969 337.066406 C 550.691406 335.558594 545.988281 332.28125 543.683594 330.417969 L 555.121094 311.8125 L 547.671875 306.671875 C 542.097656 311.8125 538.457031 316.773438 536.242188 320.40625 C 532.792969 325.8125 530.925781 328.734375 531.464844 332.546875 C 532.085938 337.332031 536.070312 340.433594 540.226562 343.53125 C 542.886719 345.570312 547.671875 348.671875 554.757812 350.355469 C 555.121094 364.445312 555.46875 378.621094 555.910156 392.707031 C 559.898438 393.949219 565.65625 395.191406 572.667969 395.277344 C 579.933594 395.277344 585.957031 393.949219 590.023438 392.707031 L 590.023438 356.378906 C 591.714844 357.089844 594.453125 358.507812 597.03125 361.34375 C 599.328125 363.824219 600.480469 366.214844 601.195312 367.898438 C 601.71875 375.785156 602.25 383.757812 602.792969 391.644531 L 612.980469 391.203125 C 612.882812 388.367188 612.714844 384.378906 612.175781 379.59375 C 611.023438 369.761719 609.960938 360.722656 604.378906 351.773438 C 601.984375 347.875 598.882812 342.914062 592.601562 339.8125 C 586.746094 336.976562 581.164062 337.152344 578.328125 337.417969 C 577.796875 338.925781 576.289062 339.898438 574.785156 339.8125 C 573.1875 339.457031 571.957031 338.480469 571.515625 337.152344 Z M 182.882812 366.925781 L 205.300781 374.457031 L 227.007812 357 L 231.085938 359.925781 C 227.183594 365.863281 223.464844 370.558594 220.628906 374.011719 C 214.957031 380.746094 212.476562 382.519531 209.464844 383.226562 C 207.691406 383.671875 205.566406 383.492188 201.3125 383.226562 C 197.148438 382.960938 193.691406 382.519531 191.214844 382.074219 C 190.679688 388.011719 190.414062 394.390625 190.414062 401.214844 C 190.414062 408.65625 190.679688 415.65625 191.214844 422.035156 C 186.160156 422.304688 180.667969 422.390625 174.820312 422.214844 C 169.589844 422.035156 164.632812 421.683594 160.023438 421.238281 C 160.820312 416.101562 161.441406 410.429688 161.707031 404.140625 C 161.972656 398.113281 161.882812 392.621094 161.53125 387.660156 C 159.226562 391.734375 156.835938 395.808594 154.527344 399.796875 L 153.734375 413.089844 L 146.113281 412.734375 C 145.933594 407.949219 146.378906 401.039062 148.945312 393.152344 C 153.113281 380.570312 160.644531 372.507812 164.71875 368.695312 L 176.503906 367.011719 C 176.59375 367.191406 177.65625 368.609375 179.605469 368.695312 C 181.554688 368.695312 182.796875 367.101562 182.882812 366.925781 "/></g></svg>